<?xml version="1.0" encoding="UTF-8"?><svg id="Livello_1" xmlns="http://www.w3.org/2000/svg" viewBox="0 0 1485.16 488.28"><defs><style>.cls-1{fill:#ebba29;}.cls-2{fill:#fff;}.cls-3{fill:#cd5879;}.cls-4{fill:#cc544d;}.cls-5{fill:#d47535;}.cls-6{fill:#222221;}.cls-7{fill:#3f81c3;}.cls-8{fill:#2a9b80;}.cls-9{fill:#2c2c5a;}.cls-10{fill:#399a5e;}.cls-11{fill:#795fa1;}</style></defs><path class="cls-8" d="m373.04,44.48c2.6,0,4.71-2.11,4.71-4.71s-2.11-4.71-4.71-4.71-4.71,2.11-4.71,4.71,2.11,4.71,4.71,4.71Z"/><path class="cls-4" d="m440.14,46.08c3.48,0,6.31-2.83,6.31-6.31s-2.83-6.31-6.31-6.31-6.31,2.83-6.31,6.31,2.83,6.31,6.31,6.31Z"/><path class="cls-7" d="m389.82,62.85h10.47v10.47c0,3.48,2.83,6.31,6.31,6.31s6.31-2.83,6.31-6.31v-10.47h10.47c3.48,0,6.31-2.83,6.31-6.31s-2.83-6.31-6.31-6.31h-10.47v-10.47c0-3.48-2.83-6.31-6.31-6.31s-6.31,2.83-6.31,6.31v10.47h-10.47c-3.48,0-6.31,2.83-6.31,6.31s2.83,6.31,6.31,6.31Z"/><path class="cls-11" d="m356.27,96.4c3.48,0,6.31-2.83,6.31-6.31s-2.83-6.31-6.31-6.31-6.31,2.83-6.31,6.31,2.83,6.31,6.31,6.31Z"/><path class="cls-3" d="m423.37,83.79c-2.11,0-3.98,1.05-5.13,2.65l-15.31,15.31c-1.6,1.15-2.65,3.01-2.65,5.13,0,3.48,2.83,6.31,6.31,6.31,2.11,0,3.98-1.05,5.13-2.65l15.3-15.3c1.6-1.15,2.65-3.01,2.65-5.13,0-3.48-2.83-6.31-6.31-6.31Z"/><path class="cls-5" d="m389.82,117.34c-3.48,0-6.31,2.83-6.31,6.31s2.83,6.31,6.31,6.31,6.31-2.83,6.31-6.31-2.83-6.31-6.31-6.31Z"/><path class="cls-1" d="m428.49,127.3l15.31-15.31c1.6-1.15,2.65-3.01,2.65-5.13,0-3.48-2.83-6.31-6.31-6.31-2.11,0-3.98,1.05-5.13,2.65l-15.31,15.31c-.57.41-1.06.9-1.47,1.47l-15.31,15.31c-1.6,1.15-2.65,3.01-2.65,5.13,0,3.48,2.83,6.31,6.31,6.31,2.11,0,3.98-1.05,5.13-2.65l15.3-15.3c.57-.41,1.06-.9,1.47-1.47Z"/><path class="cls-8" d="m373.04,135.71c-2.6,0-4.71,2.11-4.71,4.71s2.11,4.71,4.71,4.71,4.71-2.11,4.71-4.71-2.11-4.71-4.71-4.71Z"/><path class="cls-9" d="m362.42,50.4c-3.4-3.4-8.9-3.4-12.3,0-3.4,3.4-3.4,8.91,0,12.3l27.4,27.4-27.4,27.4c-3.4,3.4-3.4,8.9,0,12.3,1.7,1.7,3.92,2.55,6.15,2.55s4.45-.85,6.15-2.55l33.55-33.55c1.63-1.63,2.55-3.84,2.55-6.15s-.92-4.52-2.55-6.15l-33.55-33.55Z"/><path class="cls-10" d="m446.92,73.32l13.38-13.38c1.87-1.87,1.87-4.91,0-6.78-1.87-1.87-4.91-1.87-6.78,0l-16.77,16.77c-1.87,1.87-1.87,4.91,0,6.78l16.77,16.77c.94.94,2.16,1.4,3.39,1.4,1.23,0,2.45-.47,3.39-1.4,1.87-1.87,1.87-4.91,0-6.78l-13.38-13.39Z"/><path class="cls-11" d="m453.52,120.25l-16.77,16.77c-1.87,1.87-1.87,4.91,0,6.78.94.94,2.16,1.4,3.39,1.4s2.45-.47,3.39-1.4l16.77-16.77c1.87-1.87,1.87-4.91,0-6.78-1.87-1.87-4.91-1.87-6.78,0Z"/><path class="cls-9" d="m518,39.67v28.37c0,.62-.37.99-.99.99h-5.34c-.62,0-.95-.37-.95-.99v-14.58c0-.91-.66-1.12-1.12-.33l-7.46,11.97c-.41.62-.99.62-1.37,0l-7.41-11.89c-.5-.79-1.16-.58-1.16.33v14.49c0,.62-.33.99-.95.99h-5.34c-.62,0-.99-.37-.99-.99v-28.37c0-.58.37-.95.99-.95h5.14c.5,0,.91.21,1.16.62l8.57,13.46c.37.58.95.58,1.33,0l8.57-13.46c.29-.41.66-.62,1.16-.62h5.18c.62,0,.99.37.99.95Z"/><path class="cls-9" d="m522.5,53.92c0-10.65,8.07-15.7,15.15-15.7,10.4,0,15.9,7.5,15.12,17.52-.09.87-.75,1.37-1.66,1.37h-20.12c-.66,0-1.08.37-.79,1.04.83,2.57,3.81,4.64,8.82,4.64,3.56,0,6.21-1.66,7.41-2.53.54-.37,1.2-.21,1.49.17l2.49,2.98c.45.54.41,1.08,0,1.53-.5.54-3.65,4.56-11.52,4.56-10.19,0-16.4-6.17-16.4-15.57Zm7.58-3.65c-.21.62.04,1.08.66,1.08h13.5c.74,0,.99-.33.83-1.08-.33-2.4-2.57-5.26-7.5-5.26-4.43,0-6.92,2.44-7.5,5.26Z"/><path class="cls-9" d="m556.35,53.92c0-10.65,8.08-15.7,15.16-15.7,10.39,0,15.9,7.5,15.11,17.52-.08.87-.75,1.37-1.66,1.37h-20.13c-.66,0-1.08.37-.79,1.04.83,2.57,3.81,4.64,8.82,4.64,3.56,0,6.21-1.66,7.42-2.53.54-.37,1.2-.21,1.49.17l2.48,2.98c.46.54.41,1.08,0,1.53-.5.54-3.64,4.56-11.51,4.56-10.19,0-16.4-6.17-16.4-15.57Zm7.58-3.65c-.21.62.04,1.08.66,1.08h13.5c.75,0,.99-.33.83-1.08-.33-2.4-2.57-5.26-7.5-5.26-4.43,0-6.92,2.44-7.5,5.26Z"/><path class="cls-9" d="m591.52,39.67c0-.58.37-.95,1-.95h5.34c.62,0,.95.37.95.95v3.69c0,.58.37.91.95.91h9.61c.62,0,.95.37.95.99v4.8c0,.62-.33.99-.95.99h-9.61c-.58,0-.95.33-.95.91v5.72c0,2.36.7,5.05,4.39,5.05,2.07,0,3.44-1.04,4.14-2.69.33-.54.7-.79,1.28-.54l3.89,1.41c.58.21.78.62.62,1.2-1.49,5.43-4.97,7.46-10.31,7.46-6.63,0-11.31-4.56-11.31-11.89v-18.01Z"/><path class="cls-9" d="m483.17,74.97h6.34c.5,0,.91.21,1.16.66l5.63,9.82c.37.66.91.66,1.28,0l5.68-9.82c.25-.46.66-.66,1.16-.66h6.3c.74,0,1.03.5.66,1.16l-10.48,17.15c-.2.37-.33.75-.33,1.16v9.85c0,.62-.33.99-.95.99h-5.3c-.62,0-.99-.37-.99-.99v-9.85c0-.41-.13-.79-.33-1.16l-10.48-17.15c-.37-.66-.08-1.16.66-1.16Z"/><path class="cls-9" d="m527.54,74.48c9.07,0,15.69,7.04,15.69,15.65s-6.62,15.7-15.69,15.7-15.65-7.04-15.65-15.7,6.62-15.65,15.65-15.65Zm0,24.35c4.72,0,8.2-3.27,8.2-8.7s-3.48-8.7-8.2-8.7-8.16,3.31-8.16,8.7,3.48,8.7,8.16,8.7Z"/><path class="cls-9" d="m547.73,92.86v-16.94c0-.58.37-.95,1-.95h5.34c.62,0,.95.37.95.95v16.94c0,4.97,3.85,6.21,7.58,6.21,1.86,0,3.1-.21,4.26-.5.5-.17.75-.5.75-1.08v-21.57c0-.58.37-.95.99-.95h5.34c.62,0,.95.37.95.95v26.59c0,.54-.17,1.12-.95,1.45-2.9,1.12-7.29,1.82-11.01,1.82-9.81,0-15.2-4.89-15.2-12.92Z"/><path class="cls-9" d="m581.75,74.97h13.54c6.09,0,11.47,4.27,11.47,10.4,0,5.14-3.07,8.61-9.11,8.9-.83.04-.87.46-.58,1.04.79,2.2,3.81,3.44,7.62,3.44h.83c.62,0,.99.33.99.91v4.72c0,.58-.33.95-.95.99-.7.04-.87.04-1.49.04-7.99,0-13.54-3.94-13.7-13.62v-1.45c-.04-.62.33-1.04.95-.99,4.97.37,7.87-.5,7.87-3.77,0-2.28-1.62-3.85-4.43-3.85h-5.72c-.62,0-.99.37-.99.99v21.57c0,.62-.33.99-.95.99h-5.34c-.62,0-.99-.37-.99-.99v-28.37c0-.58.37-.95.99-.95Z"/><path class="cls-9" d="m493.15,123.08h11.51c.62,0,.99.33.99.95v4.81c0,.62-.37.99-.99.99h-11.51c-.58,0-.95.33-.95.95v9.77c0,.62-.33.99-.95.99h-5.34c-.62,0-.99-.37-.99-.99v-28.37c0-.58.37-.95.99-.95h20.46c.62,0,.99.37.99.95v4.85c0,.62-.37.95-.99.95h-13.21c-.58,0-.95.33-.95.95v3.19c0,.58.37.95.95.95Z"/><path class="cls-9" d="m509.4,132.48c0-6.3,4.56-10.02,13.05-10.02,2.27,0,3.64.12,5.34.33.62.08.83-.25.83-.79,0-2.73-1.41-4.64-6.55-4.64-3.35,0-6.5.75-7.74,1.08-.75.21-1.28,0-1.45-.75l-.99-4.22c-.13-.58.12-1.04.7-1.2,1.78-.5,6.05-1.53,10.93-1.53,9.9,0,12.43,4.39,12.43,13.13v15.45c0,.66-.25,1.12-.75,1.24-3.56,1.2-7.87,1.57-12.38,1.57-8.66,0-13.42-3.6-13.42-9.65Zm18.43,2.86c.58-.08.83-.46.83-1.04v-4.27c0-.54-.29-.91-.87-.99-.95-.17-2.86-.37-5.26-.37-4.23,0-5.72,1.49-5.72,3.56,0,2.49,2.24,3.52,6.21,3.52,2.65,0,4.1-.25,4.81-.41Z"/><path class="cls-9" d="m568.31,141.54h-5.34c-.62,0-.95-.37-.95-.99v-16.56c0-5.26-3.48-6.34-6.62-6.34-2.61,0-4.47.37-5.51.7-.54.17-.83.58-.83,1.12v21.08c0,.62-.33.99-.95.99h-5.34c-.62,0-.99-.37-.99-.99v-25.92c0-.79.33-1.37.99-1.57,3.81-1.53,7.91-2.28,12.59-2.28,9.81,0,13.95,4.14,13.95,12.92v16.85c0,.62-.37.99-.99.99Z"/><path class="cls-9" d="m616.82,40.36v-1.7c0-.29.17-.48.48-.48h6.15c.31,0,.5.19.5.48v1.7c0,.31-.19.48-.5.48h-1.41c-.19,0-.29.12-.29.31v5.07c0,.31-.19.5-.5.5h-1.74c-.31,0-.48-.19-.48-.5v-5.07c0-.19-.12-.31-.31-.31h-1.43c-.31,0-.48-.17-.48-.48Zm15.22-2.17h1.2c.31,0,.5.19.5.48v7.56c0,.31-.19.5-.5.5h-1.82c-.31,0-.48-.19-.48-.5v-2.69c0-.29-.25-.33-.35-.08l-.99,2.09c-.15.33-.52.33-.68,0l-1.02-2.09c-.1-.27-.35-.21-.35.08v2.69c0,.31-.17.5-.48.5h-1.84c-.29,0-.48-.19-.48-.5v-7.56c0-.29.19-.48.48-.48h1.18c.27,0,.48.1.6.29l2.05,3.27c.1.17.29.17.39,0l2.01-3.27c.15-.19.33-.29.58-.29Z"/><path class="cls-8" d="m40.53,17.53c4.13,0,7.49-3.36,7.49-7.49s-3.36-7.49-7.49-7.49-7.49,3.36-7.49,7.49,3.36,7.49,7.49,7.49Z"/><path class="cls-4" d="m147.27,20.07c5.53,0,10.03-4.5,10.03-10.03s-4.5-10.03-10.03-10.03-10.03,4.5-10.03,10.03,4.5,10.03,10.03,10.03Z"/><path class="cls-7" d="m67.21,46.76h16.65v16.65c0,5.53,4.5,10.03,10.03,10.03s10.04-4.5,10.04-10.03v-16.65h16.65c5.53,0,10.03-4.5,10.03-10.03s-4.5-10.03-10.03-10.03h-16.65V10.03c0-5.53-4.5-10.03-10.04-10.03s-10.03,4.5-10.03,10.03v16.65h-16.65c-5.53,0-10.03,4.5-10.03,10.03s4.5,10.03,10.03,10.03Z"/><path class="cls-11" d="m13.84,100.13c5.53,0,10.03-4.5,10.03-10.03s-4.5-10.03-10.03-10.03-10.03,4.5-10.03,10.03,4.5,10.03,10.03,10.03Z"/><path class="cls-3" d="m120.59,80.06c-3.36,0-6.33,1.67-8.16,4.21l-24.35,24.35c-2.55,1.82-4.21,4.8-4.21,8.16,0,5.53,4.5,10.03,10.03,10.03,3.36,0,6.34-1.67,8.16-4.21l24.35-24.35c2.55-1.82,4.21-4.8,4.21-8.16,0-5.53-4.5-10.03-10.03-10.03Z"/><path class="cls-5" d="m67.21,133.43c-5.53,0-10.03,4.5-10.03,10.03s4.5,10.03,10.03,10.03,10.04-4.5,10.04-10.03-4.5-10.03-10.04-10.03Z"/><path class="cls-1" d="m128.74,149.29l24.35-24.35c2.55-1.82,4.21-4.8,4.21-8.16,0-5.53-4.5-10.03-10.03-10.03-3.36,0-6.34,1.67-8.16,4.21l-24.35,24.35c-.9.65-1.69,1.43-2.34,2.34l-24.35,24.35c-2.55,1.82-4.21,4.8-4.21,8.16,0,5.53,4.5,10.03,10.03,10.03,3.36,0,6.34-1.67,8.16-4.21l24.35-24.35c.9-.65,1.69-1.43,2.34-2.34Z"/><path class="cls-8" d="m40.53,162.66c-4.13,0-7.49,3.36-7.49,7.49s3.36,7.49,7.49,7.49,7.49-3.36,7.49-7.49-3.36-7.49-7.49-7.49Z"/><path class="cls-9" d="m23.62,26.94c-5.4-5.4-14.17-5.4-19.57,0-5.4,5.4-5.4,14.17,0,19.57l43.59,43.59L4.05,133.68c-5.4,5.4-5.4,14.17,0,19.57,2.7,2.7,6.24,4.05,9.79,4.05s7.08-1.35,9.79-4.05l53.37-53.37c2.6-2.6,4.05-6.12,4.05-9.79s-1.46-7.19-4.05-9.79L23.62,26.94Z"/><path class="cls-10" d="m158.06,63.41l21.29-21.29c2.98-2.98,2.98-7.81,0-10.78-2.98-2.98-7.81-2.98-10.78,0l-26.69,26.69c-2.98,2.98-2.98,7.81,0,10.78l26.69,26.69c1.49,1.49,3.44,2.23,5.39,2.23,1.95,0,3.9-.74,5.39-2.23,2.98-2.98,2.98-7.81,0-10.78l-21.29-21.29Z"/><path class="cls-11" d="m168.57,138.08l-26.69,26.69c-2.98,2.98-2.98,7.81,0,10.78,1.49,1.49,3.44,2.23,5.39,2.23s3.9-.74,5.39-2.23l26.69-26.69c2.98-2.98,2.98-7.81,0-10.78-2.98-2.98-7.81-2.98-10.78,0Z"/><path class="cls-9" d="m198.86,18.81h-1.92c-.22,0-.35.13-.35.35v6.96c0,.22-.13.35-.35.35h-2.1c-.22,0-.35-.13-.35-.35v-6.96c0-.22-.13-.35-.35-.35h-1.95c-.22,0-.35-.13-.35-.35v-1.89c0-.22.13-.35.35-.35h7.37c.22,0,.35.13.35.35v1.89c0,.22-.13.35-.35.35Z"/><path class="cls-9" d="m211.85,16.57v9.55c0,.22-.13.35-.35.35h-2.1c-.22,0-.35-.13-.35-.35v-4.33c0-.34-.24-.41-.42-.13l-2.26,3.42c-.14.22-.35.22-.49,0l-2.24-3.39c-.18-.28-.42-.21-.42.13v4.3c0,.22-.13.35-.35.35h-2.1c-.22,0-.35-.13-.35-.35v-9.55c0-.22.13-.35.35-.35h2.02c.18,0,.32.07.42.22l2.67,3.95c.14.21.35.21.49,0l2.68-3.95c.1-.15.24-.22.42-.22h2.03c.22,0,.35.13.35.35Z"/><path class="cls-8" d="m40.53,325.62c4.13,0,7.49-3.36,7.49-7.49s-3.36-7.49-7.49-7.49-7.49,3.36-7.49,7.49,3.36,7.49,7.49,7.49Z"/><path class="cls-4" d="m147.27,328.16c5.53,0,10.03-4.5,10.03-10.03s-4.5-10.03-10.03-10.03-10.03,4.5-10.03,10.03,4.5,10.03,10.03,10.03Z"/><path class="cls-7" d="m67.21,354.85h16.65v16.65c0,5.53,4.5,10.03,10.03,10.03s10.04-4.5,10.04-10.03v-16.65h16.65c5.53,0,10.03-4.5,10.03-10.03s-4.5-10.03-10.03-10.03h-16.65v-16.65c0-5.53-4.5-10.03-10.04-10.03s-10.03,4.5-10.03,10.03v16.65h-16.65c-5.53,0-10.03,4.5-10.03,10.03s4.5,10.03,10.03,10.03Z"/><path class="cls-11" d="m13.84,408.22c5.53,0,10.03-4.5,10.03-10.03s-4.5-10.03-10.03-10.03-10.03,4.5-10.03,10.03,4.5,10.03,10.03,10.03Z"/><path class="cls-3" d="m120.59,388.15c-3.36,0-6.33,1.67-8.16,4.21l-24.35,24.35c-2.55,1.82-4.21,4.8-4.21,8.16,0,5.53,4.5,10.03,10.03,10.03,3.36,0,6.34-1.67,8.16-4.21l24.35-24.35c2.55-1.82,4.21-4.8,4.21-8.16,0-5.53-4.5-10.03-10.03-10.03Z"/><path class="cls-5" d="m67.21,441.53c-5.53,0-10.03,4.5-10.03,10.03s4.5,10.03,10.03,10.03,10.04-4.5,10.04-10.03-4.5-10.03-10.04-10.03Z"/><path class="cls-1" d="m128.74,457.38l24.35-24.35c2.55-1.82,4.21-4.8,4.21-8.16,0-5.53-4.5-10.03-10.03-10.03-3.36,0-6.34,1.67-8.16,4.21l-24.35,24.35c-.9.65-1.69,1.43-2.34,2.34l-24.35,24.35c-2.55,1.82-4.21,4.8-4.21,8.16,0,5.53,4.5,10.03,10.03,10.03,3.36,0,6.34-1.67,8.16-4.21l24.35-24.35c.9-.65,1.69-1.43,2.34-2.34Z"/><path class="cls-8" d="m40.53,470.75c-4.13,0-7.49,3.36-7.49,7.49s3.36,7.49,7.49,7.49,7.49-3.36,7.49-7.49-3.36-7.49-7.49-7.49Z"/><path class="cls-2" d="m23.62,335.03c-5.4-5.4-14.17-5.4-19.57,0-5.4,5.4-5.4,14.17,0,19.57l43.59,43.59-43.59,43.59c-5.4,5.4-5.4,14.17,0,19.57,2.7,2.7,6.24,4.05,9.79,4.05s7.08-1.35,9.79-4.05l53.37-53.37c2.6-2.6,4.05-6.12,4.05-9.79s-1.46-7.19-4.05-9.79l-53.37-53.37Z"/><path class="cls-10" d="m158.06,371.5l21.29-21.29c2.98-2.98,2.98-7.81,0-10.78-2.98-2.98-7.81-2.98-10.78,0l-26.69,26.69c-2.98,2.98-2.98,7.81,0,10.78l26.69,26.69c1.49,1.49,3.44,2.23,5.39,2.23,1.95,0,3.9-.74,5.39-2.23,2.98-2.98,2.98-7.81,0-10.78l-21.29-21.29Z"/><path class="cls-11" d="m168.57,446.17l-26.69,26.69c-2.98,2.98-2.98,7.81,0,10.78,1.49,1.49,3.44,2.23,5.39,2.23s3.9-.74,5.39-2.23l26.69-26.69c2.98-2.98,2.98-7.81,0-10.78-2.98-2.98-7.81-2.98-10.78,0Z"/><path class="cls-2" d="m198.86,326.91h-1.92c-.22,0-.35.13-.35.35v6.96c0,.22-.13.35-.35.35h-2.1c-.22,0-.35-.13-.35-.35v-6.96c0-.22-.13-.35-.35-.35h-1.95c-.22,0-.35-.13-.35-.35v-1.89c0-.22.13-.35.35-.35h7.37c.22,0,.35.13.35.35v1.89c0,.22-.13.35-.35.35Z"/><path class="cls-2" d="m211.85,324.66v9.55c0,.22-.13.35-.35.35h-2.1c-.22,0-.35-.13-.35-.35v-4.33c0-.34-.24-.41-.42-.13l-2.26,3.42c-.14.22-.35.22-.49,0l-2.24-3.39c-.18-.28-.42-.21-.42.13v4.3c0,.22-.13.35-.35.35h-2.1c-.22,0-.35-.13-.35-.35v-9.55c0-.22.13-.35.35-.35h2.02c.18,0,.32.07.42.22l2.67,3.95c.14.21.35.21.49,0l2.68-3.95c.1-.15.24-.22.42-.22h2.03c.22,0,.35.13.35.35Z"/><path class="cls-8" d="m373.04,352.15c2.6,0,4.71-2.11,4.71-4.71s-2.11-4.71-4.71-4.71-4.71,2.11-4.71,4.71,2.11,4.71,4.71,4.71Z"/><path class="cls-4" d="m440.14,353.75c3.48,0,6.31-2.83,6.31-6.31s-2.83-6.31-6.31-6.31-6.31,2.83-6.31,6.31,2.83,6.31,6.31,6.31Z"/><path class="cls-7" d="m389.82,370.52h10.47v10.47c0,3.48,2.83,6.31,6.31,6.31s6.31-2.83,6.31-6.31v-10.47h10.47c3.48,0,6.31-2.83,6.31-6.31s-2.83-6.31-6.31-6.31h-10.47v-10.47c0-3.48-2.83-6.31-6.31-6.31s-6.31,2.83-6.31,6.31v10.47h-10.47c-3.48,0-6.31,2.83-6.31,6.31s2.83,6.31,6.31,6.31Z"/><path class="cls-11" d="m356.27,404.07c3.48,0,6.31-2.83,6.31-6.31s-2.83-6.31-6.31-6.31-6.31,2.83-6.31,6.31,2.83,6.31,6.31,6.31Z"/><path class="cls-3" d="m423.37,391.46c-2.11,0-3.98,1.05-5.13,2.65l-15.31,15.31c-1.6,1.15-2.65,3.01-2.65,5.13,0,3.48,2.83,6.31,6.31,6.31,2.11,0,3.98-1.05,5.13-2.65l15.3-15.3c1.6-1.15,2.65-3.01,2.65-5.13,0-3.48-2.83-6.31-6.31-6.31Z"/><path class="cls-5" d="m389.82,425c-3.48,0-6.31,2.83-6.31,6.31s2.83,6.31,6.31,6.31,6.31-2.83,6.31-6.31-2.83-6.31-6.31-6.31Z"/><path class="cls-1" d="m428.49,434.97l15.31-15.31c1.6-1.15,2.65-3.01,2.65-5.13,0-3.48-2.83-6.31-6.31-6.31-2.11,0-3.98,1.05-5.13,2.65l-15.31,15.31c-.57.41-1.06.9-1.47,1.47l-15.31,15.31c-1.6,1.15-2.65,3.01-2.65,5.13,0,3.48,2.83,6.31,6.31,6.31,2.11,0,3.98-1.05,5.13-2.65l15.3-15.3c.57-.41,1.06-.9,1.47-1.47Z"/><path class="cls-8" d="m373.04,443.38c-2.6,0-4.71,2.11-4.71,4.71s2.11,4.71,4.71,4.71,4.71-2.11,4.71-4.71-2.11-4.71-4.71-4.71Z"/><path class="cls-2" d="m362.42,358.06c-3.4-3.4-8.9-3.4-12.3,0-3.4,3.4-3.4,8.91,0,12.3l27.4,27.4-27.4,27.4c-3.4,3.4-3.4,8.9,0,12.3,1.7,1.7,3.92,2.55,6.15,2.55s4.45-.85,6.15-2.55l33.55-33.55c1.63-1.63,2.55-3.84,2.55-6.15s-.92-4.52-2.55-6.15l-33.55-33.55Z"/><path class="cls-10" d="m446.92,380.99l13.38-13.38c1.87-1.87,1.87-4.91,0-6.78-1.87-1.87-4.91-1.87-6.78,0l-16.77,16.77c-1.87,1.87-1.87,4.91,0,6.78l16.77,16.77c.94.94,2.16,1.4,3.39,1.4,1.23,0,2.45-.47,3.39-1.4,1.87-1.87,1.87-4.91,0-6.78l-13.38-13.39Z"/><path class="cls-11" d="m453.52,427.92l-16.77,16.77c-1.87,1.87-1.87,4.91,0,6.78.94.94,2.16,1.4,3.39,1.4s2.45-.47,3.39-1.4l16.77-16.77c1.87-1.87,1.87-4.91,0-6.78-1.87-1.87-4.91-1.87-6.78,0Z"/><path class="cls-2" d="m518,347.34v28.37c0,.62-.37.99-.99.99h-5.34c-.62,0-.95-.37-.95-.99v-14.58c0-.91-.66-1.12-1.12-.33l-7.46,11.97c-.41.62-.99.62-1.37,0l-7.41-11.89c-.5-.79-1.16-.58-1.16.33v14.49c0,.62-.33.99-.95.99h-5.34c-.62,0-.99-.37-.99-.99v-28.37c0-.58.37-.95.99-.95h5.14c.5,0,.91.21,1.16.62l8.57,13.46c.37.58.95.58,1.33,0l8.57-13.46c.29-.41.66-.62,1.16-.62h5.18c.62,0,.99.37.99.95Z"/><path class="cls-2" d="m522.5,361.58c0-10.65,8.07-15.7,15.15-15.7,10.4,0,15.9,7.5,15.12,17.52-.09.87-.75,1.37-1.66,1.37h-20.12c-.66,0-1.08.37-.79,1.04.83,2.57,3.81,4.64,8.82,4.64,3.56,0,6.21-1.66,7.41-2.53.54-.37,1.2-.21,1.49.17l2.49,2.98c.45.54.41,1.08,0,1.53-.5.54-3.65,4.56-11.52,4.56-10.19,0-16.4-6.17-16.4-15.57Zm7.58-3.65c-.21.62.04,1.08.66,1.08h13.5c.74,0,.99-.33.83-1.08-.33-2.4-2.57-5.26-7.5-5.26-4.43,0-6.92,2.44-7.5,5.26Z"/><path class="cls-2" d="m556.35,361.58c0-10.65,8.08-15.7,15.16-15.7,10.39,0,15.9,7.5,15.11,17.52-.08.87-.75,1.37-1.66,1.37h-20.13c-.66,0-1.08.37-.79,1.04.83,2.57,3.81,4.64,8.82,4.64,3.56,0,6.21-1.66,7.42-2.53.54-.37,1.2-.21,1.49.17l2.48,2.98c.46.54.41,1.08,0,1.53-.5.54-3.64,4.56-11.51,4.56-10.19,0-16.4-6.17-16.4-15.57Zm7.58-3.65c-.21.62.04,1.08.66,1.08h13.5c.75,0,.99-.33.83-1.08-.33-2.4-2.57-5.26-7.5-5.26-4.43,0-6.92,2.44-7.5,5.26Z"/><path class="cls-2" d="m591.52,347.34c0-.58.37-.95,1-.95h5.34c.62,0,.95.37.95.95v3.69c0,.58.37.91.95.91h9.61c.62,0,.95.37.95.99v4.8c0,.62-.33.99-.95.99h-9.61c-.58,0-.95.33-.95.91v5.72c0,2.36.7,5.05,4.39,5.05,2.07,0,3.44-1.04,4.14-2.69.33-.54.7-.79,1.28-.54l3.89,1.41c.58.21.78.62.62,1.2-1.49,5.43-4.97,7.46-10.31,7.46-6.63,0-11.31-4.56-11.31-11.89v-18.01Z"/><path class="cls-2" d="m483.17,382.64h6.34c.5,0,.91.21,1.16.66l5.63,9.82c.37.66.91.66,1.28,0l5.68-9.82c.25-.46.66-.66,1.16-.66h6.3c.74,0,1.03.5.66,1.16l-10.48,17.15c-.2.37-.33.75-.33,1.16v9.85c0,.62-.33.99-.95.99h-5.3c-.62,0-.99-.37-.99-.99v-9.85c0-.41-.13-.79-.33-1.16l-10.48-17.15c-.37-.66-.08-1.16.66-1.16Z"/><path class="cls-2" d="m527.54,382.14c9.07,0,15.69,7.04,15.69,15.65s-6.62,15.7-15.69,15.7-15.65-7.04-15.65-15.7,6.62-15.65,15.65-15.65Zm0,24.35c4.72,0,8.2-3.27,8.2-8.7s-3.48-8.7-8.2-8.7-8.16,3.31-8.16,8.7,3.48,8.7,8.16,8.7Z"/><path class="cls-2" d="m547.73,400.53v-16.94c0-.58.37-.95,1-.95h5.34c.62,0,.95.37.95.95v16.94c0,4.97,3.85,6.21,7.58,6.21,1.86,0,3.1-.21,4.26-.5.5-.17.75-.5.75-1.08v-21.57c0-.58.37-.95.99-.95h5.34c.62,0,.95.37.95.95v26.59c0,.54-.17,1.12-.95,1.45-2.9,1.12-7.29,1.82-11.01,1.82-9.81,0-15.2-4.89-15.2-12.92Z"/><path class="cls-2" d="m581.75,382.64h13.54c6.09,0,11.47,4.27,11.47,10.4,0,5.14-3.07,8.61-9.11,8.9-.83.04-.87.46-.58,1.04.79,2.2,3.81,3.44,7.62,3.44h.83c.62,0,.99.33.99.91v4.72c0,.58-.33.95-.95.99-.7.04-.87.04-1.49.04-7.99,0-13.54-3.94-13.7-13.62v-1.45c-.04-.62.33-1.04.95-.99,4.97.37,7.87-.5,7.87-3.77,0-2.28-1.62-3.85-4.43-3.85h-5.72c-.62,0-.99.37-.99.99v21.57c0,.62-.33.99-.95.99h-5.34c-.62,0-.99-.37-.99-.99v-28.37c0-.58.37-.95.99-.95Z"/><path class="cls-2" d="m493.15,430.74h11.51c.62,0,.99.33.99.95v4.81c0,.62-.37.99-.99.99h-11.51c-.58,0-.95.33-.95.95v9.77c0,.62-.33.99-.95.99h-5.34c-.62,0-.99-.37-.99-.99v-28.37c0-.58.37-.95.99-.95h20.46c.62,0,.99.37.99.95v4.85c0,.62-.37.95-.99.95h-13.21c-.58,0-.95.33-.95.95v3.19c0,.58.37.95.95.95Z"/><path class="cls-2" d="m509.4,440.14c0-6.3,4.56-10.02,13.05-10.02,2.27,0,3.64.12,5.34.33.62.08.83-.25.83-.79,0-2.73-1.41-4.64-6.55-4.64-3.35,0-6.5.75-7.74,1.08-.75.21-1.28,0-1.45-.75l-.99-4.22c-.13-.58.12-1.04.7-1.2,1.78-.5,6.05-1.53,10.93-1.53,9.9,0,12.43,4.39,12.43,13.13v15.45c0,.66-.25,1.12-.75,1.24-3.56,1.2-7.87,1.57-12.38,1.57-8.66,0-13.42-3.6-13.42-9.65Zm18.43,2.86c.58-.08.83-.46.83-1.04v-4.27c0-.54-.29-.91-.87-.99-.95-.17-2.86-.37-5.26-.37-4.23,0-5.72,1.49-5.72,3.56,0,2.49,2.24,3.52,6.21,3.52,2.65,0,4.1-.25,4.81-.41Z"/><path class="cls-2" d="m568.31,449.21h-5.34c-.62,0-.95-.37-.95-.99v-16.56c0-5.26-3.48-6.34-6.62-6.34-2.61,0-4.47.37-5.51.7-.54.17-.83.58-.83,1.12v21.08c0,.62-.33.99-.95.99h-5.34c-.62,0-.99-.37-.99-.99v-25.92c0-.79.33-1.37.99-1.57,3.81-1.53,7.91-2.28,12.59-2.28,9.81,0,13.95,4.14,13.95,12.92v16.85c0,.62-.37.99-.99.99Z"/><path class="cls-2" d="m616.82,348.03v-1.7c0-.29.17-.48.48-.48h6.15c.31,0,.5.19.5.48v1.7c0,.31-.19.48-.5.48h-1.41c-.19,0-.29.12-.29.31v5.07c0,.31-.19.5-.5.5h-1.74c-.31,0-.48-.19-.48-.5v-5.07c0-.19-.12-.31-.31-.31h-1.43c-.31,0-.48-.17-.48-.48Zm15.22-2.17h1.2c.31,0,.5.19.5.48v7.56c0,.31-.19.5-.5.5h-1.82c-.31,0-.48-.19-.48-.5v-2.69c0-.29-.25-.33-.35-.08l-.99,2.09c-.15.33-.52.33-.68,0l-1.02-2.09c-.1-.27-.35-.21-.35.08v2.69c0,.31-.17.5-.48.5h-1.84c-.29,0-.48-.19-.48-.5v-7.56c0-.29.19-.48.48-.48h1.18c.27,0,.48.1.6.29l2.05,3.27c.1.17.29.17.39,0l2.01-3.27c.15-.19.33-.29.58-.29Z"/><path class="cls-6" d="m1224.47,44.48c2.6,0,4.71-2.11,4.71-4.71s-2.11-4.71-4.71-4.71-4.71,2.11-4.71,4.71,2.11,4.71,4.71,4.71Z"/><path class="cls-6" d="m1291.57,46.08c3.48,0,6.31-2.83,6.31-6.31s-2.83-6.31-6.31-6.31-6.31,2.83-6.31,6.31,2.83,6.31,6.31,6.31Z"/><path class="cls-6" d="m1241.24,62.85h10.47v10.47c0,3.48,2.83,6.31,6.31,6.31s6.31-2.83,6.31-6.31v-10.47h10.47c3.48,0,6.31-2.83,6.31-6.31s-2.83-6.31-6.31-6.31h-10.47v-10.47c0-3.48-2.83-6.31-6.31-6.31s-6.31,2.83-6.31,6.31v10.47h-10.47c-3.48,0-6.31,2.83-6.31,6.31s2.83,6.31,6.31,6.31Z"/><path class="cls-6" d="m1207.7,96.4c3.48,0,6.31-2.83,6.31-6.31s-2.83-6.31-6.31-6.31-6.31,2.83-6.31,6.31,2.83,6.31,6.31,6.31Z"/><path class="cls-6" d="m1274.79,83.79c-2.11,0-3.98,1.05-5.13,2.65l-15.31,15.31c-1.6,1.15-2.65,3.01-2.65,5.13,0,3.48,2.83,6.31,6.31,6.31,2.11,0,3.98-1.05,5.13-2.65l15.3-15.3c1.6-1.15,2.65-3.01,2.65-5.13,0-3.48-2.83-6.31-6.31-6.31Z"/><path class="cls-6" d="m1241.24,117.34c-3.48,0-6.31,2.83-6.31,6.31s2.83,6.31,6.31,6.31,6.31-2.83,6.31-6.31-2.83-6.31-6.31-6.31Z"/><path class="cls-6" d="m1279.92,127.3l15.31-15.31c1.6-1.15,2.65-3.01,2.65-5.13,0-3.48-2.83-6.31-6.31-6.31-2.11,0-3.98,1.05-5.13,2.65l-15.31,15.31c-.57.41-1.06.9-1.47,1.47l-15.31,15.31c-1.6,1.15-2.65,3.01-2.65,5.13,0,3.48,2.83,6.31,6.31,6.31,2.11,0,3.98-1.05,5.13-2.65l15.3-15.3c.57-.41,1.06-.9,1.47-1.47Z"/><path class="cls-6" d="m1224.47,135.71c-2.6,0-4.71,2.11-4.71,4.71s2.11,4.71,4.71,4.71,4.71-2.11,4.71-4.71-2.11-4.71-4.71-4.71Z"/><path class="cls-6" d="m1213.85,50.4c-3.4-3.4-8.9-3.4-12.3,0-3.4,3.4-3.4,8.91,0,12.3l27.4,27.4-27.4,27.4c-3.4,3.4-3.4,8.9,0,12.3,1.7,1.7,3.92,2.55,6.15,2.55s4.45-.85,6.15-2.55l33.55-33.55c1.63-1.63,2.55-3.84,2.55-6.15s-.92-4.52-2.55-6.15l-33.55-33.55Z"/><path class="cls-6" d="m1298.35,73.32l13.38-13.38c1.87-1.87,1.87-4.91,0-6.78-1.87-1.87-4.91-1.87-6.78,0l-16.77,16.77c-1.87,1.87-1.87,4.91,0,6.78l16.77,16.77c.94.94,2.16,1.4,3.39,1.4,1.23,0,2.45-.47,3.39-1.4,1.87-1.87,1.87-4.91,0-6.78l-13.38-13.39Z"/><path class="cls-6" d="m1304.95,120.25l-16.77,16.77c-1.87,1.87-1.87,4.91,0,6.78.94.94,2.16,1.4,3.39,1.4s2.45-.47,3.39-1.4l16.77-16.77c1.87-1.87,1.87-4.91,0-6.78-1.87-1.87-4.91-1.87-6.78,0Z"/><path class="cls-6" d="m1369.43,39.67v28.37c0,.62-.37.99-.99.99h-5.34c-.62,0-.95-.37-.95-.99v-14.58c0-.91-.66-1.12-1.12-.33l-7.46,11.97c-.41.62-.99.62-1.37,0l-7.41-11.89c-.5-.79-1.16-.58-1.16.33v14.49c0,.62-.33.99-.95.99h-5.34c-.62,0-.99-.37-.99-.99v-28.37c0-.58.37-.95.99-.95h5.14c.5,0,.91.21,1.16.62l8.57,13.46c.37.58.95.58,1.33,0l8.57-13.46c.29-.41.66-.62,1.16-.62h5.18c.62,0,.99.37.99.95Z"/><path class="cls-6" d="m1373.93,53.92c0-10.65,8.07-15.7,15.15-15.7,10.4,0,15.9,7.5,15.12,17.52-.09.87-.75,1.37-1.66,1.37h-20.12c-.66,0-1.08.37-.79,1.04.83,2.57,3.81,4.64,8.82,4.64,3.56,0,6.21-1.66,7.41-2.53.54-.37,1.2-.21,1.49.17l2.49,2.98c.45.54.41,1.08,0,1.53-.5.54-3.65,4.56-11.52,4.56-10.19,0-16.4-6.17-16.4-15.57Zm7.58-3.65c-.21.62.04,1.08.66,1.08h13.5c.74,0,.99-.33.83-1.08-.33-2.4-2.57-5.26-7.5-5.26-4.43,0-6.92,2.44-7.5,5.26Z"/><path class="cls-6" d="m1407.78,53.92c0-10.65,8.08-15.7,15.16-15.7,10.39,0,15.9,7.5,15.11,17.52-.08.87-.75,1.37-1.66,1.37h-20.13c-.66,0-1.08.37-.79,1.04.83,2.57,3.81,4.64,8.82,4.64,3.56,0,6.21-1.66,7.42-2.53.54-.37,1.2-.21,1.49.17l2.48,2.98c.46.54.41,1.08,0,1.53-.5.54-3.64,4.56-11.51,4.56-10.19,0-16.4-6.17-16.4-15.57Zm7.58-3.65c-.21.62.04,1.08.66,1.08h13.5c.75,0,.99-.33.83-1.08-.33-2.4-2.57-5.26-7.5-5.26-4.43,0-6.92,2.44-7.5,5.26Z"/><path class="cls-6" d="m1442.95,39.67c0-.58.37-.95,1-.95h5.34c.62,0,.95.37.95.95v3.69c0,.58.37.91.95.91h9.61c.62,0,.95.37.95.99v4.8c0,.62-.33.99-.95.99h-9.61c-.58,0-.95.33-.95.91v5.72c0,2.36.7,5.05,4.39,5.05,2.07,0,3.44-1.04,4.14-2.69.33-.54.7-.79,1.28-.54l3.89,1.41c.58.21.78.62.62,1.2-1.49,5.43-4.97,7.46-10.31,7.46-6.63,0-11.31-4.56-11.31-11.89v-18.01Z"/><path class="cls-6" d="m1334.6,74.97h6.34c.5,0,.91.21,1.16.66l5.63,9.82c.37.66.91.66,1.28,0l5.68-9.82c.25-.46.66-.66,1.16-.66h6.3c.74,0,1.03.5.66,1.16l-10.48,17.15c-.2.37-.33.75-.33,1.16v9.85c0,.62-.33.99-.95.99h-5.3c-.62,0-.99-.37-.99-.99v-9.85c0-.41-.13-.79-.33-1.16l-10.48-17.15c-.37-.66-.08-1.16.66-1.16Z"/><path class="cls-6" d="m1378.97,74.48c9.07,0,15.69,7.04,15.69,15.65s-6.62,15.7-15.69,15.7-15.65-7.04-15.65-15.7,6.62-15.65,15.65-15.65Zm0,24.35c4.72,0,8.2-3.27,8.2-8.7s-3.48-8.7-8.2-8.7-8.16,3.31-8.16,8.7,3.48,8.7,8.16,8.7Z"/><path class="cls-6" d="m1399.16,92.86v-16.94c0-.58.37-.95,1-.95h5.34c.62,0,.95.37.95.95v16.94c0,4.97,3.85,6.21,7.58,6.21,1.86,0,3.1-.21,4.26-.5.5-.17.75-.5.75-1.08v-21.57c0-.58.37-.95.99-.95h5.34c.62,0,.95.37.95.95v26.59c0,.54-.17,1.12-.95,1.45-2.9,1.12-7.29,1.82-11.01,1.82-9.81,0-15.2-4.89-15.2-12.92Z"/><path class="cls-6" d="m1433.18,74.97h13.54c6.09,0,11.47,4.27,11.47,10.4,0,5.14-3.07,8.61-9.11,8.9-.83.04-.87.46-.58,1.04.79,2.2,3.81,3.44,7.62,3.44h.83c.62,0,.99.33.99.91v4.72c0,.58-.33.95-.95.99-.7.04-.87.04-1.49.04-7.99,0-13.54-3.94-13.7-13.62v-1.45c-.04-.62.33-1.04.95-.99,4.97.37,7.87-.5,7.87-3.77,0-2.28-1.62-3.85-4.43-3.85h-5.72c-.62,0-.99.37-.99.99v21.57c0,.62-.33.99-.95.99h-5.34c-.62,0-.99-.37-.99-.99v-28.37c0-.58.37-.95.99-.95Z"/><path class="cls-6" d="m1344.58,123.08h11.51c.62,0,.99.33.99.95v4.81c0,.62-.37.99-.99.99h-11.51c-.58,0-.95.33-.95.95v9.77c0,.62-.33.99-.95.99h-5.34c-.62,0-.99-.37-.99-.99v-28.37c0-.58.37-.95.99-.95h20.46c.62,0,.99.37.99.95v4.85c0,.62-.37.95-.99.95h-13.21c-.58,0-.95.33-.95.95v3.19c0,.58.37.95.95.95Z"/><path class="cls-6" d="m1360.83,132.48c0-6.3,4.56-10.02,13.05-10.02,2.27,0,3.64.12,5.34.33.62.08.83-.25.83-.79,0-2.73-1.41-4.64-6.55-4.64-3.35,0-6.5.75-7.74,1.08-.75.21-1.28,0-1.45-.75l-.99-4.22c-.13-.58.12-1.04.7-1.2,1.78-.5,6.05-1.53,10.93-1.53,9.9,0,12.43,4.39,12.43,13.13v15.45c0,.66-.25,1.12-.75,1.24-3.56,1.2-7.87,1.57-12.38,1.57-8.66,0-13.42-3.6-13.42-9.65Zm18.43,2.86c.58-.08.83-.46.83-1.04v-4.27c0-.54-.29-.91-.87-.99-.95-.17-2.86-.37-5.26-.37-4.23,0-5.72,1.49-5.72,3.56,0,2.49,2.24,3.52,6.21,3.52,2.65,0,4.1-.25,4.81-.41Z"/><path class="cls-6" d="m1419.74,141.54h-5.34c-.62,0-.95-.37-.95-.99v-16.56c0-5.26-3.48-6.34-6.62-6.34-2.61,0-4.47.37-5.51.7-.54.17-.83.58-.83,1.12v21.08c0,.62-.33.99-.95.99h-5.34c-.62,0-.99-.37-.99-.99v-25.92c0-.79.33-1.37.99-1.57,3.81-1.53,7.91-2.28,12.59-2.28,9.81,0,13.95,4.14,13.95,12.92v16.85c0,.62-.37.99-.99.99Z"/><path class="cls-6" d="m1468.24,40.36v-1.7c0-.29.17-.48.48-.48h6.15c.31,0,.5.19.5.48v1.7c0,.31-.19.48-.5.48h-1.41c-.19,0-.29.12-.29.31v5.07c0,.31-.19.5-.5.5h-1.74c-.31,0-.48-.19-.48-.5v-5.07c0-.19-.12-.31-.31-.31h-1.43c-.31,0-.48-.17-.48-.48Zm15.22-2.17h1.2c.31,0,.5.19.5.48v7.56c0,.31-.19.5-.5.5h-1.82c-.31,0-.48-.19-.48-.5v-2.69c0-.29-.25-.33-.35-.08l-.99,2.09c-.15.33-.52.33-.68,0l-1.02-2.09c-.1-.27-.35-.21-.35.08v2.69c0,.31-.17.5-.48.5h-1.84c-.29,0-.48-.19-.48-.5v-7.56c0-.29.19-.48.48-.48h1.18c.27,0,.48.1.6.29l2.05,3.27c.1.17.29.17.39,0l2.01-3.27c.15-.19.33-.29.58-.29Z"/><path class="cls-6" d="m891.95,17.53c4.13,0,7.49-3.36,7.49-7.49s-3.36-7.49-7.49-7.49-7.49,3.36-7.49,7.49,3.36,7.49,7.49,7.49Z"/><path class="cls-6" d="m998.7,20.07c5.53,0,10.03-4.5,10.03-10.03s-4.5-10.03-10.03-10.03-10.03,4.5-10.03,10.03,4.5,10.03,10.03,10.03Z"/><path class="cls-6" d="m918.64,46.76h16.65v16.65c0,5.53,4.5,10.03,10.03,10.03s10.04-4.5,10.04-10.03v-16.65h16.65c5.53,0,10.03-4.5,10.03-10.03s-4.5-10.03-10.03-10.03h-16.65V10.03c0-5.53-4.5-10.03-10.04-10.03s-10.03,4.5-10.03,10.03v16.65h-16.65c-5.53,0-10.03,4.5-10.03,10.03s4.5,10.03,10.03,10.03Z"/><path class="cls-6" d="m865.27,100.13c5.53,0,10.03-4.5,10.03-10.03s-4.5-10.03-10.03-10.03-10.03,4.5-10.03,10.03,4.5,10.03,10.03,10.03Z"/><path class="cls-6" d="m972.01,80.06c-3.36,0-6.33,1.67-8.16,4.21l-24.35,24.35c-2.55,1.82-4.21,4.8-4.21,8.16,0,5.53,4.5,10.03,10.03,10.03,3.36,0,6.34-1.67,8.16-4.21l24.35-24.35c2.55-1.82,4.21-4.8,4.21-8.16,0-5.53-4.5-10.03-10.03-10.03Z"/><path class="cls-6" d="m918.64,133.43c-5.53,0-10.03,4.5-10.03,10.03s4.5,10.03,10.03,10.03,10.04-4.5,10.04-10.03-4.5-10.03-10.04-10.03Z"/><path class="cls-6" d="m980.17,149.29l24.35-24.35c2.55-1.82,4.21-4.8,4.21-8.16,0-5.53-4.5-10.03-10.03-10.03-3.36,0-6.34,1.67-8.16,4.21l-24.35,24.35c-.9.65-1.69,1.43-2.34,2.34l-24.35,24.35c-2.55,1.82-4.21,4.8-4.21,8.16,0,5.53,4.5,10.03,10.03,10.03,3.36,0,6.34-1.67,8.16-4.21l24.35-24.35c.9-.65,1.69-1.43,2.34-2.34Z"/><path class="cls-6" d="m891.95,162.66c-4.13,0-7.49,3.36-7.49,7.49s3.36,7.49,7.49,7.49,7.49-3.36,7.49-7.49-3.36-7.49-7.49-7.49Z"/><path class="cls-6" d="m875.05,26.94c-5.4-5.4-14.17-5.4-19.57,0-5.4,5.4-5.4,14.17,0,19.57l43.59,43.59-43.59,43.59c-5.4,5.4-5.4,14.17,0,19.57,2.7,2.7,6.24,4.05,9.79,4.05s7.08-1.35,9.79-4.05l53.37-53.37c2.6-2.6,4.05-6.12,4.05-9.79s-1.46-7.19-4.05-9.79l-53.37-53.37Z"/><path class="cls-6" d="m1009.49,63.41l21.29-21.29c2.98-2.98,2.98-7.81,0-10.78-2.98-2.98-7.81-2.98-10.78,0l-26.69,26.69c-2.98,2.98-2.98,7.81,0,10.78l26.69,26.69c1.49,1.49,3.44,2.23,5.39,2.23,1.95,0,3.9-.74,5.39-2.23,2.98-2.98,2.98-7.81,0-10.78l-21.29-21.29Z"/><path class="cls-6" d="m1020,138.08l-26.69,26.69c-2.98,2.98-2.98,7.81,0,10.78,1.49,1.49,3.44,2.23,5.39,2.23s3.9-.74,5.39-2.23l26.69-26.69c2.98-2.98,2.98-7.81,0-10.78-2.98-2.98-7.81-2.98-10.78,0Z"/><path class="cls-6" d="m1050.28,18.81h-1.92c-.22,0-.35.13-.35.35v6.96c0,.22-.13.35-.35.35h-2.1c-.22,0-.35-.13-.35-.35v-6.96c0-.22-.13-.35-.35-.35h-1.95c-.22,0-.35-.13-.35-.35v-1.89c0-.22.13-.35.35-.35h7.37c.22,0,.35.13.35.35v1.89c0,.22-.13.35-.35.35Z"/><path class="cls-6" d="m1063.28,16.57v9.55c0,.22-.13.35-.35.35h-2.1c-.22,0-.35-.13-.35-.35v-4.33c0-.34-.24-.41-.42-.13l-2.26,3.42c-.14.22-.35.22-.49,0l-2.24-3.39c-.18-.28-.42-.21-.42.13v4.3c0,.22-.13.35-.35.35h-2.1c-.22,0-.35-.13-.35-.35v-9.55c0-.22.13-.35.35-.35h2.02c.18,0,.32.07.42.22l2.67,3.95c.14.21.35.21.49,0l2.68-3.95c.1-.15.24-.22.42-.22h2.03c.22,0,.35.13.35.35Z"/><path class="cls-2" d="m891.95,325.62c4.13,0,7.49-3.36,7.49-7.49s-3.36-7.49-7.49-7.49-7.49,3.36-7.49,7.49,3.36,7.49,7.49,7.49Z"/><path class="cls-2" d="m998.7,328.16c5.53,0,10.03-4.5,10.03-10.03s-4.5-10.03-10.03-10.03-10.03,4.5-10.03,10.03,4.5,10.03,10.03,10.03Z"/><path class="cls-2" d="m918.64,354.85h16.65v16.65c0,5.53,4.5,10.03,10.03,10.03s10.04-4.5,10.04-10.03v-16.65h16.65c5.53,0,10.03-4.5,10.03-10.03s-4.5-10.03-10.03-10.03h-16.65v-16.65c0-5.53-4.5-10.03-10.04-10.03s-10.03,4.5-10.03,10.03v16.65h-16.65c-5.53,0-10.03,4.5-10.03,10.03s4.5,10.03,10.03,10.03Z"/><path class="cls-2" d="m865.27,408.22c5.53,0,10.03-4.5,10.03-10.03s-4.5-10.03-10.03-10.03-10.03,4.5-10.03,10.03,4.5,10.03,10.03,10.03Z"/><path class="cls-2" d="m972.01,388.15c-3.36,0-6.33,1.67-8.16,4.21l-24.35,24.35c-2.55,1.82-4.21,4.8-4.21,8.16,0,5.53,4.5,10.03,10.03,10.03,3.36,0,6.34-1.67,8.16-4.21l24.35-24.35c2.55-1.82,4.21-4.8,4.21-8.16,0-5.53-4.5-10.03-10.03-10.03Z"/><path class="cls-2" d="m918.64,441.53c-5.53,0-10.03,4.5-10.03,10.03s4.5,10.03,10.03,10.03,10.04-4.5,10.04-10.03-4.5-10.03-10.04-10.03Z"/><path class="cls-2" d="m980.17,457.38l24.35-24.35c2.55-1.82,4.21-4.8,4.21-8.16,0-5.53-4.5-10.03-10.03-10.03-3.36,0-6.34,1.67-8.16,4.21l-24.35,24.35c-.9.65-1.69,1.43-2.34,2.34l-24.35,24.35c-2.55,1.82-4.21,4.8-4.21,8.16,0,5.53,4.5,10.03,10.03,10.03,3.36,0,6.34-1.67,8.16-4.21l24.35-24.35c.9-.65,1.69-1.43,2.34-2.34Z"/><path class="cls-2" d="m891.95,470.75c-4.13,0-7.49,3.36-7.49,7.49s3.36,7.49,7.49,7.49,7.49-3.36,7.49-7.49-3.36-7.49-7.49-7.49Z"/><path class="cls-2" d="m875.05,335.03c-5.4-5.4-14.17-5.4-19.57,0-5.4,5.4-5.4,14.17,0,19.57l43.59,43.59-43.59,43.59c-5.4,5.4-5.4,14.17,0,19.57,2.7,2.7,6.24,4.05,9.79,4.05s7.08-1.35,9.79-4.05l53.37-53.37c2.6-2.6,4.05-6.12,4.05-9.79s-1.46-7.19-4.05-9.79l-53.37-53.37Z"/><path class="cls-2" d="m1009.49,371.5l21.29-21.29c2.98-2.98,2.98-7.81,0-10.78-2.98-2.98-7.81-2.98-10.78,0l-26.69,26.69c-2.98,2.98-2.98,7.81,0,10.78l26.69,26.69c1.49,1.49,3.44,2.23,5.39,2.23,1.95,0,3.9-.74,5.39-2.23,2.98-2.98,2.98-7.81,0-10.78l-21.29-21.29Z"/><path class="cls-2" d="m1020,446.17l-26.69,26.69c-2.98,2.98-2.98,7.81,0,10.78,1.49,1.49,3.44,2.23,5.39,2.23s3.9-.74,5.39-2.23l26.69-26.69c2.98-2.98,2.98-7.81,0-10.78-2.98-2.98-7.81-2.98-10.78,0Z"/><path class="cls-2" d="m1050.28,326.91h-1.92c-.22,0-.35.13-.35.35v6.96c0,.22-.13.35-.35.35h-2.1c-.22,0-.35-.13-.35-.35v-6.96c0-.22-.13-.35-.35-.35h-1.95c-.22,0-.35-.13-.35-.35v-1.89c0-.22.13-.35.35-.35h7.37c.22,0,.35.13.35.35v1.89c0,.22-.13.35-.35.35Z"/><path class="cls-2" d="m1063.28,324.66v9.55c0,.22-.13.35-.35.35h-2.1c-.22,0-.35-.13-.35-.35v-4.33c0-.34-.24-.41-.42-.13l-2.26,3.42c-.14.22-.35.22-.49,0l-2.24-3.39c-.18-.28-.42-.21-.42.13v4.3c0,.22-.13.35-.35.35h-2.1c-.22,0-.35-.13-.35-.35v-9.55c0-.22.13-.35.35-.35h2.02c.18,0,.32.07.42.22l2.67,3.95c.14.21.35.21.49,0l2.68-3.95c.1-.15.24-.22.42-.22h2.03c.22,0,.35.13.35.35Z"/><path class="cls-2" d="m1224.47,352.15c2.6,0,4.71-2.11,4.71-4.71s-2.11-4.71-4.71-4.71-4.71,2.11-4.71,4.71,2.11,4.71,4.71,4.71Z"/><path class="cls-2" d="m1291.57,353.75c3.48,0,6.31-2.83,6.31-6.31s-2.83-6.31-6.31-6.31-6.31,2.83-6.31,6.31,2.83,6.31,6.31,6.31Z"/><path class="cls-2" d="m1241.24,370.52h10.47v10.47c0,3.48,2.83,6.31,6.31,6.31s6.31-2.83,6.31-6.31v-10.47h10.47c3.48,0,6.31-2.83,6.31-6.31s-2.83-6.31-6.31-6.31h-10.47v-10.47c0-3.48-2.83-6.31-6.31-6.31s-6.31,2.83-6.31,6.31v10.47h-10.47c-3.48,0-6.31,2.83-6.31,6.31s2.83,6.31,6.31,6.31Z"/><path class="cls-2" d="m1207.7,404.07c3.48,0,6.31-2.83,6.31-6.31s-2.83-6.31-6.31-6.31-6.31,2.83-6.31,6.31,2.83,6.31,6.31,6.31Z"/><path class="cls-2" d="m1274.79,391.46c-2.11,0-3.98,1.05-5.13,2.65l-15.31,15.31c-1.6,1.15-2.65,3.01-2.65,5.13,0,3.48,2.83,6.31,6.31,6.31,2.11,0,3.98-1.05,5.13-2.65l15.3-15.3c1.6-1.15,2.65-3.01,2.65-5.13,0-3.48-2.83-6.31-6.31-6.31Z"/><path class="cls-2" d="m1241.24,425c-3.48,0-6.31,2.83-6.31,6.31s2.83,6.31,6.31,6.31,6.31-2.83,6.31-6.31-2.83-6.31-6.31-6.31Z"/><path class="cls-2" d="m1279.92,434.97l15.31-15.31c1.6-1.15,2.65-3.01,2.65-5.13,0-3.48-2.83-6.31-6.31-6.31-2.11,0-3.98,1.05-5.13,2.65l-15.31,15.31c-.57.41-1.06.9-1.47,1.47l-15.31,15.31c-1.6,1.15-2.65,3.01-2.65,5.13,0,3.48,2.83,6.31,6.31,6.31,2.11,0,3.98-1.05,5.13-2.65l15.3-15.3c.57-.41,1.06-.9,1.47-1.47Z"/><path class="cls-2" d="m1224.47,443.38c-2.6,0-4.71,2.11-4.71,4.71s2.11,4.71,4.71,4.71,4.71-2.11,4.71-4.71-2.11-4.71-4.71-4.71Z"/><path class="cls-2" d="m1213.85,358.06c-3.4-3.4-8.9-3.4-12.3,0-3.4,3.4-3.4,8.91,0,12.3l27.4,27.4-27.4,27.4c-3.4,3.4-3.4,8.9,0,12.3,1.7,1.7,3.92,2.55,6.15,2.55s4.45-.85,6.15-2.55l33.55-33.55c1.63-1.63,2.55-3.84,2.55-6.15s-.92-4.52-2.55-6.15l-33.55-33.55Z"/><path class="cls-2" d="m1298.35,380.99l13.38-13.38c1.87-1.87,1.87-4.91,0-6.78-1.87-1.87-4.91-1.87-6.78,0l-16.77,16.77c-1.87,1.87-1.87,4.91,0,6.78l16.77,16.77c.94.94,2.16,1.4,3.39,1.4,1.23,0,2.45-.47,3.39-1.4,1.87-1.87,1.87-4.91,0-6.78l-13.38-13.39Z"/><path class="cls-2" d="m1304.95,427.92l-16.77,16.77c-1.87,1.87-1.87,4.91,0,6.78.94.94,2.16,1.4,3.39,1.4s2.45-.47,3.39-1.4l16.77-16.77c1.87-1.87,1.87-4.91,0-6.78-1.87-1.87-4.91-1.87-6.78,0Z"/><path class="cls-2" d="m1369.43,347.34v28.37c0,.62-.37.99-.99.99h-5.34c-.62,0-.95-.37-.95-.99v-14.58c0-.91-.66-1.12-1.12-.33l-7.46,11.97c-.41.62-.99.62-1.37,0l-7.41-11.89c-.5-.79-1.16-.58-1.16.33v14.49c0,.62-.33.99-.95.99h-5.34c-.62,0-.99-.37-.99-.99v-28.37c0-.58.37-.95.99-.95h5.14c.5,0,.91.21,1.16.62l8.57,13.46c.37.58.95.58,1.33,0l8.57-13.46c.29-.41.66-.62,1.16-.62h5.18c.62,0,.99.37.99.95Z"/><path class="cls-2" d="m1373.93,361.58c0-10.65,8.07-15.7,15.15-15.7,10.4,0,15.9,7.5,15.12,17.52-.09.87-.75,1.37-1.66,1.37h-20.12c-.66,0-1.08.37-.79,1.04.83,2.57,3.81,4.64,8.82,4.64,3.56,0,6.21-1.66,7.41-2.53.54-.37,1.2-.21,1.49.17l2.49,2.98c.45.54.41,1.08,0,1.53-.5.54-3.65,4.56-11.52,4.56-10.19,0-16.4-6.17-16.4-15.57Zm7.58-3.65c-.21.62.04,1.08.66,1.08h13.5c.74,0,.99-.33.83-1.08-.33-2.4-2.57-5.26-7.5-5.26-4.43,0-6.92,2.44-7.5,5.26Z"/><path class="cls-2" d="m1407.78,361.58c0-10.65,8.08-15.7,15.16-15.7,10.39,0,15.9,7.5,15.11,17.52-.08.87-.75,1.37-1.66,1.37h-20.13c-.66,0-1.08.37-.79,1.04.83,2.57,3.81,4.64,8.82,4.64,3.56,0,6.21-1.66,7.42-2.53.54-.37,1.2-.21,1.49.17l2.48,2.98c.46.54.41,1.08,0,1.53-.5.54-3.64,4.56-11.51,4.56-10.19,0-16.4-6.17-16.4-15.57Zm7.58-3.65c-.21.62.04,1.08.66,1.08h13.5c.75,0,.99-.33.83-1.08-.33-2.4-2.57-5.26-7.5-5.26-4.43,0-6.92,2.44-7.5,5.26Z"/><path class="cls-2" d="m1442.95,347.34c0-.58.37-.95,1-.95h5.34c.62,0,.95.37.95.95v3.69c0,.58.37.91.95.91h9.61c.62,0,.95.37.95.99v4.8c0,.62-.33.99-.95.99h-9.61c-.58,0-.95.33-.95.91v5.72c0,2.36.7,5.05,4.39,5.05,2.07,0,3.44-1.04,4.14-2.69.33-.54.7-.79,1.28-.54l3.89,1.41c.58.21.78.62.62,1.2-1.49,5.43-4.97,7.46-10.31,7.46-6.63,0-11.31-4.56-11.31-11.89v-18.01Z"/><path class="cls-2" d="m1334.6,382.64h6.34c.5,0,.91.21,1.16.66l5.63,9.82c.37.66.91.66,1.28,0l5.68-9.82c.25-.46.66-.66,1.16-.66h6.3c.74,0,1.03.5.66,1.16l-10.48,17.15c-.2.37-.33.75-.33,1.16v9.85c0,.62-.33.99-.95.99h-5.3c-.62,0-.99-.37-.99-.99v-9.85c0-.41-.13-.79-.33-1.16l-10.48-17.15c-.37-.66-.08-1.16.66-1.16Z"/><path class="cls-2" d="m1378.97,382.14c9.07,0,15.69,7.04,15.69,15.65s-6.62,15.7-15.69,15.7-15.65-7.04-15.65-15.7,6.62-15.65,15.65-15.65Zm0,24.35c4.72,0,8.2-3.27,8.2-8.7s-3.48-8.7-8.2-8.7-8.16,3.31-8.16,8.7,3.48,8.7,8.16,8.7Z"/><path class="cls-2" d="m1399.16,400.53v-16.94c0-.58.37-.95,1-.95h5.34c.62,0,.95.37.95.95v16.94c0,4.97,3.85,6.21,7.58,6.21,1.86,0,3.1-.21,4.26-.5.5-.17.75-.5.75-1.08v-21.57c0-.58.37-.95.99-.95h5.34c.62,0,.95.37.95.95v26.59c0,.54-.17,1.12-.95,1.45-2.9,1.12-7.29,1.82-11.01,1.82-9.81,0-15.2-4.89-15.2-12.92Z"/><path class="cls-2" d="m1433.18,382.64h13.54c6.09,0,11.47,4.27,11.47,10.4,0,5.14-3.07,8.61-9.11,8.9-.83.04-.87.46-.58,1.04.79,2.2,3.81,3.44,7.62,3.44h.83c.62,0,.99.33.99.91v4.72c0,.58-.33.95-.95.99-.7.04-.87.04-1.49.04-7.99,0-13.54-3.94-13.7-13.62v-1.45c-.04-.62.33-1.04.95-.99,4.97.37,7.87-.5,7.87-3.77,0-2.28-1.62-3.85-4.43-3.85h-5.72c-.62,0-.99.37-.99.99v21.57c0,.62-.33.99-.95.99h-5.34c-.62,0-.99-.37-.99-.99v-28.37c0-.58.37-.95.99-.95Z"/><path class="cls-2" d="m1344.58,430.74h11.51c.62,0,.99.33.99.95v4.81c0,.62-.37.99-.99.99h-11.51c-.58,0-.95.33-.95.95v9.77c0,.62-.33.99-.95.99h-5.34c-.62,0-.99-.37-.99-.99v-28.37c0-.58.37-.95.99-.95h20.46c.62,0,.99.37.99.95v4.85c0,.62-.37.95-.99.95h-13.21c-.58,0-.95.33-.95.95v3.19c0,.58.37.95.95.95Z"/><path class="cls-2" d="m1360.83,440.14c0-6.3,4.56-10.02,13.05-10.02,2.27,0,3.64.12,5.34.33.62.08.83-.25.83-.79,0-2.73-1.41-4.64-6.55-4.64-3.35,0-6.5.75-7.74,1.08-.75.21-1.28,0-1.45-.75l-.99-4.22c-.13-.58.12-1.04.7-1.2,1.78-.5,6.05-1.53,10.93-1.53,9.9,0,12.43,4.39,12.43,13.13v15.45c0,.66-.25,1.12-.75,1.24-3.56,1.2-7.87,1.57-12.38,1.57-8.66,0-13.42-3.6-13.42-9.65Zm18.43,2.86c.58-.08.83-.46.83-1.04v-4.27c0-.54-.29-.91-.87-.99-.95-.17-2.86-.37-5.26-.37-4.23,0-5.72,1.49-5.72,3.56,0,2.49,2.24,3.52,6.21,3.52,2.65,0,4.1-.25,4.81-.41Z"/><path class="cls-2" d="m1419.74,449.21h-5.34c-.62,0-.95-.37-.95-.99v-16.56c0-5.26-3.48-6.34-6.62-6.34-2.61,0-4.47.37-5.51.7-.54.17-.83.58-.83,1.12v21.08c0,.62-.33.99-.95.99h-5.34c-.62,0-.99-.37-.99-.99v-25.92c0-.79.33-1.37.99-1.57,3.81-1.53,7.91-2.28,12.59-2.28,9.81,0,13.95,4.14,13.95,12.92v16.85c0,.62-.37.99-.99.99Z"/><path class="cls-2" d="m1468.24,348.03v-1.7c0-.29.17-.48.48-.48h6.15c.31,0,.5.19.5.48v1.7c0,.31-.19.48-.5.48h-1.41c-.19,0-.29.12-.29.31v5.07c0,.31-.19.5-.5.5h-1.74c-.31,0-.48-.19-.48-.5v-5.07c0-.19-.12-.31-.31-.31h-1.43c-.31,0-.48-.17-.48-.48Zm15.22-2.17h1.2c.31,0,.5.19.5.48v7.56c0,.31-.19.5-.5.5h-1.82c-.31,0-.48-.19-.48-.5v-2.69c0-.29-.25-.33-.35-.08l-.99,2.09c-.15.33-.52.33-.68,0l-1.02-2.09c-.1-.27-.35-.21-.35.08v2.69c0,.31-.17.5-.48.5h-1.84c-.29,0-.48-.19-.48-.5v-7.56c0-.29.19-.48.48-.48h1.18c.27,0,.48.1.6.29l2.05,3.27c.1.17.29.17.39,0l2.01-3.27c.15-.19.33-.29.58-.29Z"/></svg>